<svg xmlns:dc="http://purl.org/dc/elements/1.1/" xmlns:cc="http://creativecommons.org/ns#" xmlns:rdf="http://www.w3.org/1999/02/22-rdf-syntax-ns#" xmlns:svg="http://www.w3.org/2000/svg" xmlns="http://www.w3.org/2000/svg" viewBox="0 0 480 480" fill="none"><metadata><rdf:RDF><cc:Work><dc:format>image/svg+xml</dc:format><dc:type rdf:resource="http://purl.org/dc/dcmitype/StillImage"/><dc:title>Custom Avatar</dc:title><dc:creator><cc:Agent><dc:title>Ashley Seo</dc:title></cc:Agent></dc:creator><dc:source>https://www.figma.com/community/file/881358461963645496</dc:source><cc:license rdf:resource="https://creativecommons.org/licenses/by/4.0/"/></cc:Work><cc:License rdf:about="https://creativecommons.org/licenses/by/4.0/"><cc:permits rdf:resource="https://creativecommons.org/ns#Reproduction"/><cc:permits rdf:resource="https://creativecommons.org/ns#Distribution"/><cc:permits rdf:resource="https://creativecommons.org/ns#DerivativeWorks"/><cc:requires rdf:resource="https://creativecommons.org/ns#Notice"/><cc:requires rdf:resource="https://creativecommons.org/ns#Attribution"/></cc:License></rdf:RDF></metadata><mask id="avatarsRadiusMask"><rect width="480" height="480" rx="0" ry="0" x="0" y="0" fill="#fff"/></mask><g mask="url(#avatarsRadiusMask)"><g transform="matrix(.85775 0 0 .85427 52 47)"><path d="M263.989 38.62s131.387 20.593 121.424 208.128c-.036.695 15.192 10.822 16.384 11.904 10.619 9.62 19.527 21.94 23.423 36.351 13.872 51.319-35.724 104.196-75.83 118.231-14.981 5.242-30.815 7.787-46.681 8.249-103.139 3.009-239.69-62.655-246.703-190.893a172.056 172.056 0 0 1-.195-13.802c.621-24.349 6.488-48.063 15.33-70.082-.004.001 57.398-142.617 192.848-108.085Z" fill="rgba(100, 61, 25, 1)"/><path d="M388.739 248.727c-1.423 3.492-2.844 7.955-3.241 10.507-1.694 10.947 2.045 22.252 8.54 30.378 6.168 7.716 14.976 12.72 23.506 14.607 2.88.637 6.367.964 9.416 1.067-3.204-31.703-28.973-50.725-38.221-56.559ZM203.534 332.051c24.406-5.26 39.558-31.017 33.844-57.531-5.714-26.514-30.13-43.744-54.535-38.484-24.405 5.259-39.558 31.016-33.844 57.53 5.714 26.514 30.13 43.744 54.535 38.485Z" fill="#DC2400" style="mix-blend-mode:multiply" opacity=".1"/><path opacity=".1" d="M323.014 257.889s20.842-19.864 36.977-1.188Z" fill="#000"/><g><path d="M128.679 356.869c-69.38 34.83-132.35-52.512-112.18-101.609 12.866-31.317 50.38-33.752 72.118-5.146 12.829 16.883 23.209 38.464 29.103 59.108" fill="rgba(100, 61, 25, 1)"/><path opacity=".1" d="M71.534 278.927c8.927 9.099 16.103 22.593 24.923 30.12-1.63-12.595-4.232-26.045-10.34-37.396-6.201-11.528-17.479-21.025-28.962-20.242-14.23.971-25.947 17.573-27.454 32.626.9-9.008 18.99-15.104 25.894-14.251 10.812 20.413 14.998 60.644 14.998 60.644 9.007-22.775 5.36-40.689.941-51.501Z" fill="#000"/></g></g><g transform="matrix(.85472 0 0 .855 19 -17)"><path fill-rule="evenodd" clip-rule="evenodd" d="M386.855 358.003a3.998 3.998 0 0 1 2.92 1.116c4.177 4.022 11.453 9.224 19.483 11.71 7.919 2.451 16.1 2.167 23.139-3.866a4 4 0 1 1 5.206 6.074c-9.761 8.367-21.08 8.416-30.711 5.434-7.751-2.4-14.709-6.822-19.63-10.889-36.527 37.664-82.45 26.485-101.226 15.903a4 4 0 0 1 3.928-6.97c17.423 9.821 60.594 20.081 94.06-17.187a3.997 3.997 0 0 1 2.831-1.325Z" fill="#592125"/></g><g transform="matrix(.85472 0 0 .855 19 -17)"><g fill="#2A1200"><path d="M396.994 294.274c4.349-1.505 11.31-4.375 16.906-8.085 3.125 3.488 5.041 9.094 5.032 14.082-.016 7.961-3.618 16.509-12.837 15.527-7.737-.825-9.712-10.984-9.703-15.985.004-1.895.212-3.768.602-5.539ZM301.243 283.111c-2.795 3.74-4.628 9.037-4.64 15.437-.024 12.454 6.147 18.991 15.419 21.474 12.879 1.976 19.082-7.663 19.104-19.538a25.997 25.997 0 0 0-.79-6.365c-6.582.059-17.564-2.203-29.093-11.008Z"/></g><g fill="#71472D"><path d="M332.093 270.313c-13.643 2.463-28.392-2.393-38.414-12.589-3.232-3.287-4.223-9.2-.973-13.032 3.002-3.546 8.555-4.711 12.014-1.188a38.215 38.215 0 0 0 3.261 2.98c.356.287 1.338.792 1.652 1.22.173.11.342.22.518.326a37.66 37.66 0 0 0 3.344 1.8c.654.31 1.314.596 1.981.867.211.084.422.165.636.245.584.091 1.257.394 1.79.53a35.823 35.823 0 0 0 5.811.972c.175.015.346.025.521.035.67-.015 1.34-.014 2.011-.052a36.64 36.64 0 0 0 4.26-.521c4.408-.798 9.069 3.474 9.284 8.252.23 5.259-2.974 9.301-7.696 10.155ZM421.666 261.428c-5.887 6.064-13.75 9.471-21.731 9.645-2.154.047-4.495-1.111-5.936-2.75-1.419-1.614-2.428-4.246-2.244-6.542.193-2.383 1.022-4.852 2.763-6.499 1.765-1.669 3.813-2.597 6.152-2.651.384-.008.762-.062 1.146-.089a22.682 22.682 0 0 0 3.398-.939 23.89 23.89 0 0 0 3.704-2.245c.394-.355.805-.689 1.179-1.073 1.613-1.659 3.964-2.67 6.153-2.652 2.095.018 4.559 1.044 5.934 2.754 1.427 1.77 2.442 4.086 2.245 6.542-.196 2.447-1.057 4.742-2.763 6.499Z"/></g></g><g transform="matrix(.85472 0 0 .85667 18 -15)"><g fill="rgba(213, 108, 12, 1)"><path fill-rule="evenodd" clip-rule="evenodd" d="M341.66 167.935c.306.357.604.712.893 1.065.29-.257.571-.51.845-.757 20.782 3.795 37.439 10.491 43.921 15.757 12.662 10.288 18.802 14.248 20.353 14.977 8.514 19.697 13.728 41.672 15.881 55.023 4 24.8 3 53.667 2 65 1.562 1.172 3.192 2.309 4.925 3.519 4.923 3.437 10.678 7.454 18.074 14.481 11.5-22 9.176-34.457 6.5-47.5-1.318-6.43-3.942-12.859-7.1-20.598-6.418-15.73-15.043-36.867-19.4-74.402-3.921-33.788-31.999-84.5-63.999-95.5-25.6-8.8-45.667-3.667-51.001 0-54.999-46-140-14-163 0-10.703 6.515-19.458 16.063-28.682 26.122-10.597 11.557-21.813 23.789-37.318 32.878-29 17-35 60-29 89s9 53-6 72-23 47-6 80c13.6 26.4 9.667 49 6 57 17.474 16.075 55.364 28.983 92.5 38.423 1.846.469 2.307-4.759 2.768-9.979.458-5.192.915-10.377 2.732-9.944l1.607 2.33c.285.967.521 2.181.786 3.545l.001.001c1.293 6.654 3.282 16.883 15.106 19.51C203.825 508.503 236.553 513 236.553 513c13.172-22.392-2.283-53.46-16.086-81.204-7.154-14.382-13.865-27.871-15.914-38.796-3.4-18.136 3.478-31.133 12.261-47.728 6.714-12.687 14.54-27.476 19.739-48.272 4.554-18.215 3.348-32.974 2.174-47.337-1.73-21.156-3.389-41.453 13.534-70.671 27.511-15.385 61.857-15.818 89.399-11.057Zm63.531 25.573a139.336 139.336 0 0 0-2.976-5.896 173.362 173.362 0 0 1 2.976 5.896Z"/><path d="M442.052 448c1.167 5.833 2.8 19.2 0 26-7.5 1.333-24.799 3.6-34 2 6.334-3.833 22-14.8 34-28Z"/></g><g fill="#000" fill-opacity=".3"><path d="M343.398 168.243c20.782 3.795 37.439 10.491 43.921 15.757 12.662 10.288 18.802 14.248 20.353 14.977a163.373 163.373 0 0 0-2.48-5.468 175.346 175.346 0 0 0-2.977-5.898c-11.048-20.634-26.322-35.66-46.162-29.611-2.989 1.035-4.852 2.83-8.082 5.945-1.265 1.219-2.739 2.641-4.573 4.298ZM258.554 169c29.825-43.954 67.223-19.629 83.106-1.065-27.542-4.761-61.888-4.328-89.399 11.057a165.8 165.8 0 0 1 6.293-9.992Z"/></g><g fill="#000" fill-opacity=".15"><path d="M216.552 172c23.2-40 72.334-46.667 94-45-117-12-128 68-128 99 0 24.8 3 39-5 53-29 34.5-18.333 66.667-13 79-5-26 5-45 27-70s-4-66 25-116ZM182.552 444c-14.4-14.4-18-28-18-33 46.4 24 37.334 61.333 27 77 3-8.667 5.4-29.6-9-44ZM112.552 279c8.8-20 7-43.667 5-53 0 30-19 62-40 100-16.8 30.4 7 66 21 80 3-16-10-28-11-57s14-45 25-70ZM443.552 333c5.201-16.4 1.5-39.5-1-49 0 16.4-3 36.167-4.5 44l5.5 5Z"/></g></g><g transform="matrix(.85472 0 0 .85667 14 -12)"/></g></svg>