<svg xmlns:dc="http://purl.org/dc/elements/1.1/" xmlns:cc="http://creativecommons.org/ns#" xmlns:rdf="http://www.w3.org/1999/02/22-rdf-syntax-ns#" xmlns:svg="http://www.w3.org/2000/svg" xmlns="http://www.w3.org/2000/svg" viewBox="0 0 480 480" fill="none"><metadata><rdf:RDF><cc:Work><dc:format>image/svg+xml</dc:format><dc:type rdf:resource="http://purl.org/dc/dcmitype/StillImage"/><dc:title>Custom Avatar</dc:title><dc:creator><cc:Agent><dc:title>Ashley Seo</dc:title></cc:Agent></dc:creator><dc:source>https://www.figma.com/community/file/881358461963645496</dc:source><cc:license rdf:resource="https://creativecommons.org/licenses/by/4.0/"/></cc:Work><cc:License rdf:about="https://creativecommons.org/licenses/by/4.0/"><cc:permits rdf:resource="https://creativecommons.org/ns#Reproduction"/><cc:permits rdf:resource="https://creativecommons.org/ns#Distribution"/><cc:permits rdf:resource="https://creativecommons.org/ns#DerivativeWorks"/><cc:requires rdf:resource="https://creativecommons.org/ns#Notice"/><cc:requires rdf:resource="https://creativecommons.org/ns#Attribution"/></cc:License></rdf:RDF></metadata><mask id="avatarsRadiusMask"><rect width="480" height="480" rx="0" ry="0" x="0" y="0" fill="#fff"/></mask><g mask="url(#avatarsRadiusMask)"><g transform="matrix(.85775 0 0 .85427 52 47)"><path d="M263.989 38.62s131.387 20.593 121.424 208.128c-.036.695 15.192 10.822 16.384 11.904 10.619 9.62 19.527 21.94 23.423 36.351 13.872 51.319-35.724 104.196-75.83 118.231-14.981 5.242-30.815 7.787-46.681 8.249-103.139 3.009-239.69-62.655-246.703-190.893a172.056 172.056 0 0 1-.195-13.802c.621-24.349 6.488-48.063 15.33-70.082-.004.001 57.398-142.617 192.848-108.085Z" fill="rgba(164, 117, 57, 1)"/><path d="M388.739 248.727c-1.423 3.492-2.844 7.955-3.241 10.507-1.694 10.947 2.045 22.252 8.54 30.378 6.168 7.716 14.976 12.72 23.506 14.607 2.88.637 6.367.964 9.416 1.067-3.204-31.703-28.973-50.725-38.221-56.559ZM203.534 332.051c24.406-5.26 39.558-31.017 33.844-57.531-5.714-26.514-30.13-43.744-54.535-38.484-24.405 5.259-39.558 31.016-33.844 57.53 5.714 26.514 30.13 43.744 54.535 38.485Z" fill="#DC2400" style="mix-blend-mode:multiply" opacity=".1"/><path opacity=".1" d="M323.014 257.889s20.842-19.864 36.977-1.188Z" fill="#000"/><g><path d="M128.679 356.869c-69.38 34.83-132.35-52.512-112.18-101.609 12.866-31.317 50.38-33.752 72.118-5.146 12.829 16.883 23.209 38.464 29.103 59.108" fill="rgba(164, 117, 57, 1)"/><path opacity=".1" d="M71.534 278.927c8.927 9.099 16.103 22.593 24.923 30.12-1.63-12.595-4.232-26.045-10.34-37.396-6.201-11.528-17.479-21.025-28.962-20.242-14.23.971-25.947 17.573-27.454 32.626.9-9.008 18.99-15.104 25.894-14.251 10.812 20.413 14.998 60.644 14.998 60.644 9.007-22.775 5.36-40.689.941-51.501Z" fill="#000"/></g></g><g transform="matrix(.85472 0 0 .855 19 -17)"><path d="M385.305 380.359c9.354.259 18.323-2.416 26.048-10.444 4.042-4.197 8.141-6.507 13.94-2.917 13.885 8.598 17.154 30.077 13.422 44.479-4.098 15.803-16.442 28.544-30.667 36.853-38.279 22.36-67.64 17.328-106.811 3.035-30.833-11.248-72.517-33.921-61.951-72.943 13.085-48.315 69.477-25.118 101.296-12.084 13.51 5.539 29.618 13.602 44.723 14.021Z" fill="#fff"/><mask id="mouthTeethSmile-a" style="mask-type:alpha" maskUnits="userSpaceOnUse" x="237" y="349" width="204" height="115"><path d="M385.305 380.359c9.354.259 18.323-2.416 26.048-10.444 4.042-4.197 8.141-6.507 13.94-2.917 13.885 8.598 17.154 30.077 13.422 44.479-4.098 15.803-16.442 28.544-30.667 36.853-38.279 22.36-67.64 17.328-106.811 3.035-30.833-11.248-72.517-33.921-61.951-72.943 13.085-48.315 69.477-25.118 101.296-12.084 13.51 5.539 29.618 13.602 44.723 14.021Z" fill="#fff"/></mask><g mask="url(#mouthTeethSmile-a)"><path fill-rule="evenodd" clip-rule="evenodd" d="m257.597 434.025 40.072-101.131 5.579 2.211-40.073 101.131-5.578-2.211Zm82.34 32.677 27.679-106.117 5.805 1.514-27.678 106.117-5.806-1.514Zm82.38-25.622-15.273-77.8 5.888-1.155 15.272 77.799-5.887 1.156Z" fill="#D1D3D4"/></g></g><g transform="matrix(.85472 0 0 .855 19 -17)"><g fill="#2A1200"><path d="M330.178 300.479c-.023 11.876-6.228 21.515-19.112 19.539-9.274-2.483-15.448-9.019-15.424-21.474.026-13.049 7.627-21.517 15.508-21.532 10.534-.02 19.051 11.591 19.028 23.467ZM396.385 292.992c5.657.333 13.447-.258 18.677-3.883 1.872 3.289 2.958 7.397 2.951 11.155-.015 7.961-3.619 16.509-12.842 15.527-7.739-.825-9.715-10.983-9.705-15.984.005-2.358.326-4.68.919-6.815Z"/></g><g fill="#71472D"><path d="M332.006 238.124c-13.75-1.763-28.233 3.84-37.721 14.534-3.059 3.448-3.747 9.405-.305 13.066 3.179 3.387 8.785 4.267 12.059.572a38.045 38.045 0 0 1 3.104-3.142c.341-.306 1.296-.86 1.588-1.304.167-.118.33-.237.501-.351a37.654 37.654 0 0 1 3.247-1.969 37.51 37.51 0 0 1 1.935-.967c.206-.095.412-.186.622-.278.578-.12 1.235-.457 1.76-.62a35.838 35.838 0 0 1 5.755-1.268c.173-.023.344-.042.518-.062.67-.019 1.339-.054 2.011-.05 1.431.011 2.858.123 4.281.302 4.443.572 8.88-3.933 8.85-8.715-.039-5.264-3.445-9.137-8.205-9.748ZM419.494 276.074c-7.428 4.032-15.949 4.938-23.619 2.723-2.07-.598-3.959-2.401-4.845-4.396-.873-1.964-1.051-4.777-.19-6.913.894-2.217 2.422-4.326 4.575-5.378 2.183-1.068 4.415-1.342 6.664-.696.368.107.745.169 1.12.257 1.167.132 2.339.167 3.523.117a23.824 23.824 0 0 0 4.205-1.037c.482-.221.974-.418 1.446-.673 2.034-1.102 4.58-1.365 6.663-.695 1.994.641 4.04 2.356 4.843 4.399.833 2.114 1.112 4.628.191 6.913-.917 2.278-2.424 4.211-4.576 5.379Z"/></g></g><g transform="matrix(.85472 0 0 .85667 18 -15)"><path d="M423 224.5c-25-104-115.5-123-152.5-121.5C106.1 105 69.667 238.167 72 310.5c1-2 3-3.5 3-3.5 13-7 20.5-5 23-5 43.5 2 58.833 53.5 56 75.5 7.9 7.407 18.727.184 23.329-2.886l.171-.114c3.6-2.4 0-13.5 0-20-9-42-7-102-4.5-102 2 0 29.5-2.333 40.5-4-.8-10.4-3.667-40.333 0-45.5-3.2 5.2 10.167 36.833 11.5 43 49.5 5 150.5-13 153.5-14.5 2.4-1.2-1-27.833-3-41 7.6 7.2 13.833 31.667 15 41 9.6-.8 25.667-5 32.5-7Z" fill="rgba(233, 183, 41, 1)"/><g fill="#000" fill-opacity=".15"><path d="M283 119c23.333 1.667 77.4 16.2 107 61-11.667-24.333-49.4-70.6-107-61ZM331 167c7 9 21.2 33.6 22 60 5-10.667 7.6-37.6-22-60ZM132 251c4.8-53.6 40-93 57-106-64 20.8-78 89.333-77 121 .8-40 23.667-74 35-86-10.4 18.4-14.333 55-15 71Z"/></g></g><g transform="matrix(.85472 0 0 .85667 14 -12)"/></g></svg>